<svg xmlns="http://www.w3.org/2000/svg" xmlns:xlink="http://www.w3.org/1999/xlink" xmlns:fi="http://pattern.flaticon.com/" x="0" y="0" width="700" height="350" viewBox="0 0 700 350"><rect x="0px" y="0px" width="100%" height="100%" opacity="1" fill="#ffffff"/><defs><g transform="matrix(-0.1171875 0 0 0.1171875 106 269)" id="L1_14"><circle cx="286" cy="346" r="15"/><circle cx="226" cy="256" r="15"/><path d="M447.389,426.238L365.756,331H406c5.82,0,11.115-3.367,13.584-8.638s1.665-11.494-2.061-15.965L338.026,211H346    c12.131,0,19.523-13.964,12-24L280.525,83.7C292.839,75.662,301,61.77,301,46c0-24.867-20.096-46-45-46c-24.873,0-45,21.096-45,46    c0,15.77,8.161,29.662,20.475,37.7L154,187c-7.411,9.882-0.323,23.9,12,23.9h7.974c-15.259,18.311-77.76,93.415-79.524,95.531    C86.266,316.323,93.499,331,106,331h40.245l-81.633,95.238c-3.812,4.448-4.687,10.708-2.239,16.03C64.82,447.59,70.142,451,76,451    h135v46c0,8.284,6.716,15,15,15h60c8.284,0,15-6.716,15-15v-46h135c5.858,0,11.18-3.41,13.628-8.732    C452.075,436.946,451.201,430.686,447.389,426.238z M256,30c7.991,0,15,7.477,15,16c0,8.271-6.729,15-15,15s-15-6.729-15-15    C241,37.477,248.009,30,256,30z M256,101l60,80h-4.377c-28.591,0-54.295-15.886-67.082-41.459l-6.979-13.958L256,101z     M138.025,301l79.498-95.397c3.726-4.471,4.529-10.694,2.061-15.965C217.116,184.367,211.82,181,206,181h-10l21.438-28.583    l0.271,0.541c15.621,31.241,45.766,52.715,80.545,57.175l1.542,1.85C292.068,263.142,248.467,301,196,301h-17.142H138.025z     M271,482h-30v-31h30V482z M108.613,421l63.478-74.057c27.972,30.96,62.035,56.317,99.766,74.057    C264.84,421,114.536,421,108.613,421z M198.175,330.974c57.423-0.916,106.983-37.845,125.331-90.538L373.975,301h-40.832    c-5.858,0-11.18,3.41-13.628,8.732c-2.447,5.322-1.573,11.582,2.239,16.03l81.616,95.218    C325.589,420.25,251.06,387.183,198.175,330.974z"/></g><g transform="matrix(0.1171875 0 0 0.1171875 115 45)" id="L1_15"><circle cx="136" cy="376" r="15"/><circle cx="196" cy="256" r="15"/><circle cx="256" cy="376" r="15"/><circle cx="376" cy="376" r="15"/><circle cx="316" cy="256" r="15"/><path d="M361,150.904V105c0-24.813-20.187-45-45-45h-15V45c0-24.813-20.187-45-45-45s-45,20.187-45,45v15h-15    c-24.813,0-45,20.187-45,45v45.904C96.913,185.779,61,246.753,61,316c0,108.075,87.477,196,195,196s195-87.925,195-196    C451,246.753,415.087,185.779,361,150.904z M241,45c0-8.271,6.729-15,15-15s15,6.729,15,15v15h-30V45z M181,105    c0-8.271,6.729-15,15-15c12.617,0,107.005,0,120,0c8.271,0,15,6.729,15,15v30.085C307.9,125.375,282.564,120,256,120    c-26.564,0-51.9,5.375-75,15.085V105z M256,150c88.868,0,161.54,71.052,164.868,159.654l-34.261-34.261    c-5.857-5.858-15.355-5.857-21.213,0L316,324.787l-49.394-49.394c-5.857-5.858-15.355-5.858-21.213,0L196,324.787l-49.394-49.394    c-5.857-5.858-15.355-5.857-21.213,0l-34.261,34.261C94.46,221.052,167.132,150,256,150z M256,482    c-79.772,0-146.5-57.251-161.731-133.056L136,307.213l49.394,49.394c5.857,5.858,15.355,5.858,21.213,0L256,307.213l49.394,49.394    C308.322,359.536,312.161,361,316,361s7.678-1.464,10.606-4.393L376,307.213l41.731,41.731C402.5,424.749,335.772,482,256,482z"/></g><path d="M510.002,261.072c-18.756-63.105-53.817-120.517-101.391-166.029C362.079,50.527,304.652,18.29,242.54,1.813    c-23.265-6.173-47.358,6.081-56.041,28.499L0,511.779l482.42-193.477C505.134,309.191,516.991,284.588,510.002,261.072z     M169.649,156.92c7.632-4.043,16.145-6.169,24.887-6.169c29.356,0,53.24,23.883,53.24,53.24s-23.883,53.24-53.24,53.24    c-22.6,0-42.589-14.261-50.109-35.196L169.649,156.92z M110.056,342.862c9.926,0,18.001,8.075,18.001,18.001    c0,9.926-8.076,18.001-18.001,18.001c-9.926,0-18.001-8.076-18.001-18.001C92.055,350.938,100.13,342.862,110.056,342.862z     M220.786,390.887c-1.724-22.645,11.308-44.848,33.439-53.624c21.933-8.699,46.52-1.6,60.835,15.815L220.786,390.887z     M343.78,341.559c-8.97-13.935-21.889-24.881-37.464-31.477c-20.268-8.583-42.696-8.84-63.157-0.727    c-37.597,14.909-58.393,54.598-51.062,93.037L52.948,458.199l24.181-62.427c8.604,8.121,20.19,13.114,32.926,13.114    c26.479,0,48.022-21.543,48.022-48.022c0-26.479-21.543-48.022-48.022-48.022c-0.272,0-0.54,0.016-0.812,0.021l21.465-55.414    c15.461,18.423,38.599,29.802,63.827,29.802c45.909,0,83.261-37.35,83.261-83.261s-37.35-83.261-83.261-83.261    c-3.754,0-7.48,0.261-11.162,0.755l11.622-30.002c55.417,14.769,103.057,40.81,141.749,77.531    c6.039,5.731,11.801,11.687,17.304,17.848c-20.381,5.553-35.413,24.214-35.413,46.331c0,26.479,21.542,48.022,48.021,48.022    c14.982,0,28.379-6.9,37.193-17.685c6.784,14.941,12.512,30.636,17.178,47.049L343.78,341.559z M366.658,215.19    c9.926,0,18.001,8.076,18.001,18.001c0,9.926-8.075,18.001-18.001,18.001s-18-8.076-18-18.001    C348.658,223.266,356.732,215.19,366.658,215.19z M471.244,290.439l-22.222,8.912C414.37,181.559,327.005,96.748,205.897,63.344    l8.594-22.187c2.6-6.711,9.012-10.905,15.928-10.905c1.462,0,2.948,0.188,4.423,0.579    c57.226,15.179,110.138,44.884,153.016,85.905c43.81,41.911,76.096,94.778,93.368,152.889    C483.771,278.187,479.48,287.135,471.244,290.439z" transform="matrix(0.1171875 0 0 0.1171875 246 158.00000194549557)" id="L1_16"/></defs><g fi:class="KUsePattern" opacity="0.25"><pattern id="pattern_L1_14" width="350" height="350" patternUnits="userSpaceOnUse"><use xlink:href="#L1_14" x="-350" y="-350"/><use xlink:href="#L1_14" x="0" y="-350"/><use xlink:href="#L1_14" x="350" y="-350"/><use xlink:href="#L1_14" x="-350" y="0"/><use xlink:href="#L1_14" x="0" y="0"/><use xlink:href="#L1_14" x="350" y="0"/><use xlink:href="#L1_14" x="-350" y="350"/><use xlink:href="#L1_14" x="0" y="350"/><use xlink:href="#L1_14" x="350" y="350"/></pattern><rect x="0" y="0" width="100%" height="100%" fill="url(#pattern_L1_14)"/></g><g fi:class="KUsePattern" opacity="0.25"><pattern id="pattern_L1_15" width="350" height="350" patternUnits="userSpaceOnUse"><use xlink:href="#L1_15" x="-350" y="-350"/><use xlink:href="#L1_15" x="0" y="-350"/><use xlink:href="#L1_15" x="350" y="-350"/><use xlink:href="#L1_15" x="-350" y="0"/><use xlink:href="#L1_15" x="0" y="0"/><use xlink:href="#L1_15" x="350" y="0"/><use xlink:href="#L1_15" x="-350" y="350"/><use xlink:href="#L1_15" x="0" y="350"/><use xlink:href="#L1_15" x="350" y="350"/></pattern><rect x="0" y="0" width="100%" height="100%" fill="url(#pattern_L1_15)"/></g><g fi:class="KUsePattern" opacity="0.25"><pattern id="pattern_L1_16" width="350" height="350" patternUnits="userSpaceOnUse"><use xlink:href="#L1_16" x="-350" y="-350"/><use xlink:href="#L1_16" x="0" y="-350"/><use xlink:href="#L1_16" x="350" y="-350"/><use xlink:href="#L1_16" x="-350" y="0"/><use xlink:href="#L1_16" x="0" y="0"/><use xlink:href="#L1_16" x="350" y="0"/><use xlink:href="#L1_16" x="-350" y="350"/><use xlink:href="#L1_16" x="0" y="350"/><use xlink:href="#L1_16" x="350" y="350"/></pattern><rect x="0" y="0" width="100%" height="100%" fill="url(#pattern_L1_16)"/></g></svg>